<?xml version="1.0" standalone="no"?><!DOCTYPE svg PUBLIC "-//W3C//DTD SVG 1.1//EN" "http://www.w3.org/Graphics/SVG/1.1/DTD/svg11.dtd"><svg t="1742805824779" class="icon" viewBox="0 0 1024 1024" version="1.1" xmlns="http://www.w3.org/2000/svg" p-id="35669" xmlns:xlink="http://www.w3.org/1999/xlink" width="200" height="200"><path d="M987.648 596.992c-0.512-21.504-3.072-43.008-7.68-65.024-33.28-169.472-185.344-273.92-260.096-305.152-74.752-31.232-181.248-51.712-242.688-43.008 0 0-193.536 3.584-327.68 155.648C70.656 430.08 39.424 518.144 36.352 597.504c-2.048 54.784 9.216 105.984 27.648 151.552 45.056 111.616 173.056 201.728 288.768 228.864 115.712 26.624 267.264 40.448 427.008-43.008 138.752-72.192 212.992-195.584 207.872-337.92z" fill="#F6C13D" p-id="35670"></path><path d="M509.952 182.272c61.952 0 147.456 18.432 210.432 45.056 74.752 31.232 226.304 136.192 260.096 305.152 4.096 22.016 6.656 43.52 7.68 65.024 5.12 142.336-69.12 265.216-207.872 337.92-91.136 47.616-179.2 63.488-260.096 63.488-60.928 0-117.248-9.216-166.912-20.48-115.712-26.624-243.712-117.248-288.768-228.864-18.432-45.568-29.696-96.768-27.648-151.552 3.072-79.872 34.304-167.424 113.664-257.536 133.632-152.064 327.68-155.648 327.68-155.648 9.216-2.048 19.968-2.56 31.744-2.56m0-11.264c-12.288 0-23.552 0.512-33.28 2.048-6.656 0-53.248 2.048-115.712 21.504-60.928 18.432-147.968 57.856-219.136 138.24C68.096 416.768 29.184 505.856 25.6 597.504c-2.048 52.224 7.68 104.448 28.16 156.16 49.152 120.832 186.368 209.92 296.448 235.008 60.928 13.824 116.224 20.992 169.472 20.992 93.696 0 182.784-21.504 265.216-64.512 140.8-73.728 218.624-200.192 213.504-347.648-0.512-21.504-3.584-44.032-7.68-66.56-34.304-174.08-189.44-281.088-266.24-313.344-65.536-28.16-151.552-46.592-214.528-46.592z" fill="#B45334" p-id="35671"></path><path d="M979.968 532.48c-33.28-169.472-185.344-273.92-260.096-305.152-74.752-31.232-181.248-51.712-242.688-43.008 0 0-193.536 3.584-327.68 155.648C70.656 430.08 39.424 518.144 36.352 597.504c2.048 44.544 12.288 86.528 27.648 124.416 45.056 111.616 173.056 201.728 288.768 228.864 115.712 26.624 267.264 40.448 427.008-43.008 130.048-67.584 203.264-180.224 207.872-310.784-0.512-20.992-3.072-42.496-7.68-64.512z" fill="#F7E174" p-id="35672"></path><path d="M549.376 664.576h-76.8s-7.68 23.552-6.144 40.96c0.512 3.584 1.024 6.656 2.048 9.728 7.168 16.896 32.768 28.672 67.584 16.896 13.312-4.608 18.432-15.872 19.456-27.648 1.536-18.944-6.144-39.936-6.144-39.936z" fill="#F08D8A" p-id="35673"></path><path d="M517.632 690.688c-30.72-2.048-48.128 12.288-51.2 15.36 0.512 3.584 1.024 6.656 2.048 9.728 7.168 16.896 32.768 28.672 67.584 16.896 13.312-4.608 18.432-15.872 19.456-27.648-1.536-3.072-9.728-12.288-37.888-14.336z" fill="#F0AEAC" p-id="35674"></path><path d="M465.92 706.56c5.12-6.144 12.8-10.752 20.48-13.824 7.68-3.072 16.384-4.608 24.576-4.608 8.192 0 16.896 1.024 24.576 3.584 4.096 1.024 8.192 2.56 11.776 5.12 3.584 2.048 7.168 5.12 8.704 8.704-2.56-3.072-6.144-5.12-9.728-6.656-3.584-1.536-7.68-2.56-11.264-3.072-7.68-1.536-15.872-2.048-23.552-2.048-7.68 0-15.872 1.024-23.552 3.072-8.192 2.048-15.36 4.608-22.016 9.728z" fill="#EC646F" p-id="35675"></path><path d="M221.696 667.136c28.16 0 50.688 11.776 50.688 26.112s-22.528 26.112-50.688 26.112-50.688-11.776-50.688-26.112 23.04-26.112 50.688-26.112z" fill="#F08D8A" p-id="35676"></path><path d="M238.08 693.248c-3.072 6.656-7.168 11.264-8.704 10.752-1.536-0.512-0.512-6.656 2.56-13.312s7.168-11.264 8.704-10.752c1.536 1.024 0.512 6.656-2.56 13.312zM209.92 693.248c-3.072 6.656-7.168 11.264-8.704 10.752-1.536-0.512-0.512-6.656 2.56-13.312s7.168-11.264 8.704-10.752c2.048 1.024 1.024 6.656-2.56 13.312z" fill="#F8D0E1" p-id="35677"></path><path d="M309.248 388.608c86.016 0 156.16 68.608 156.16 153.088s-69.632 153.088-156.16 153.088-156.16-68.608-156.16-153.088 70.144-153.088 156.16-153.088z" fill="#F6C23D" p-id="35678"></path><path d="M310.784 386.56c84.992 0 153.6 67.584 153.6 150.528s-68.608 150.528-153.6 150.528-153.6-67.584-153.6-150.528 68.608-150.528 153.6-150.528z" fill="#FFFFFF" p-id="35679"></path><path d="M316.416 414.208c60.416 0 109.568 48.128 109.568 107.008s-49.152 107.008-109.568 107.008-109.568-48.128-109.568-107.008S256 414.208 316.416 414.208z" fill="#5B1228" p-id="35680"></path><path d="M263.68 576.512c10.752 0 19.456 8.192 19.456 18.944s-8.704 18.944-19.456 18.944-19.456-8.192-19.456-18.944 8.704-18.944 19.456-18.944zM380.928 442.88c23.552 0 42.496 18.432 42.496 41.472s-18.944 41.472-42.496 41.472-42.496-18.432-42.496-41.472 18.944-41.472 42.496-41.472z" fill="#FFFFFF" p-id="35681"></path><path d="M792.064 667.136c28.16 0 50.688 11.776 50.688 26.112s-22.528 26.112-50.688 26.112-50.688-11.776-50.688-26.112 23.04-26.112 50.688-26.112z" fill="#F08D8A" p-id="35682"></path><path d="M808.448 693.248c-3.072 6.656-7.168 11.264-8.704 10.752-1.536-0.512-0.512-6.656 2.56-13.312s7.168-11.264 8.704-10.752c1.536 1.024 0.512 6.656-2.56 13.312zM780.288 693.248c-3.072 6.656-7.168 11.264-8.704 10.752-1.536-0.512-0.512-6.656 2.56-13.312s7.168-11.264 8.704-10.752c2.048 1.024 1.024 6.656-2.56 13.312z" fill="#F8D0E1" p-id="35683"></path><path d="M713.728 388.608c86.016 0 156.16 68.608 156.16 153.088s-69.632 153.088-156.16 153.088-156.16-68.608-156.16-153.088 70.144-153.088 156.16-153.088z" fill="#F6C23D" p-id="35684"></path><path d="M715.264 386.56c84.992 0 153.6 67.584 153.6 150.528s-68.608 150.528-153.6 150.528-153.6-67.584-153.6-150.528 68.608-150.528 153.6-150.528z" fill="#FFFFFF" p-id="35685"></path><path d="M721.408 414.208c60.416 0 109.568 48.128 109.568 107.008s-49.152 107.008-109.568 107.008c-60.416 0-109.568-48.128-109.568-107.008s49.152-107.008 109.568-107.008z" fill="#5B1228" p-id="35686"></path><path d="M668.16 576.512c10.752 0 19.456 8.192 19.456 18.944s-8.704 18.944-19.456 18.944c-10.752 0-19.456-8.192-19.456-18.944s8.704-18.944 19.456-18.944zM787.968 442.88c23.552 0 42.496 18.432 42.496 41.472s-18.944 41.472-42.496 41.472-42.496-18.432-42.496-41.472 18.944-41.472 42.496-41.472z" fill="#FFFFFF" p-id="35687"></path><path d="M614.4 29.696s-9.728 20.992-33.28 19.456c-23.552-1.536-71.68-6.144-91.648 37.888 0 0-5.12-50.688-56.832-57.344-33.792-4.608-56.32 7.168-80.896 7.68-18.432 0.512-22.528-11.776-22.528-11.776s-8.704 27.648-1.536 60.928c1.024 5.12 2.56 10.24 4.608 14.848 11.776 28.16 38.912 54.272 86.528 53.76 32.768-0.512 52.736-13.824 59.904-18.944 1.536-1.536 2.56-2.048 2.56-2.048s17.92 29.696 4.096 56.32c-0.512 0.512-1.024 1.536-1.024 2.048 0 0 12.288 20.992 33.28 0 0 0 8.192-29.696-8.192-54.784 0 0 41.472 18.432 80.896 11.776 17.92-3.072 34.304-17.92 42.496-38.4 9.216-23.04 7.168-54.272-18.432-81.408z" fill="#7FC056" p-id="35688"></path><path d="M329.216 25.6s4.096 11.776 20.992 11.776h1.536c20.48-0.512 39.424-8.704 65.024-8.704 5.12 0 10.24 0.512 15.872 1.024C484.352 35.84 489.472 86.528 489.472 86.528c15.36-33.28 46.592-38.4 70.656-38.4 7.68 0 14.848 0.512 20.48 1.024h2.56c22.016 0 30.72-19.456 30.72-19.456 25.6 27.648 28.16 58.88 18.432 82.432-8.192 19.968-24.576 34.816-42.496 38.4-6.144 1.024-12.288 1.536-18.432 1.536-32.768 0-61.952-13.312-61.952-13.312 16.384 25.088 8.192 54.784 8.192 54.784-7.168 7.168-12.8 9.216-17.92 9.216-9.728 0-15.36-9.216-15.36-9.216 0.512-0.512 1.024-1.536 1.024-2.048 14.336-26.624-4.096-56.32-4.096-56.32s-1.024 0.512-2.56 2.048c-6.656 5.12-27.136 17.92-59.904 18.944h-1.536c-46.592 0-73.728-25.6-84.992-53.76-2.048-5.12-3.584-10.24-4.608-14.848-7.168-34.304 1.536-61.952 1.536-61.952m0-10.752c-5.12 0-9.216 3.072-10.24 7.68-0.512 1.024-9.216 30.72-1.536 66.56 1.536 5.632 3.072 11.776 5.12 16.896 7.68 18.432 31.744 60.416 95.232 60.416h2.048c26.624-0.512 46.08-8.704 57.344-15.36 3.072 9.216 5.12 22.528-1.024 34.816 0 0.512-0.512 0.512-0.512 1.024s-0.512 0.512-0.512 1.024c-2.048 3.584-2.048 7.68 0 11.264 1.024 1.536 9.216 14.848 24.576 14.848 8.704 0 17.408-4.096 25.6-12.288 1.536-1.536 2.56-3.072 3.072-4.608 0.512-1.024 5.12-18.944 0.512-39.424 11.776 3.072 27.136 6.144 43.008 6.144 7.168 0 13.824-0.512 20.48-1.536 22.016-4.096 41.472-20.992 50.688-45.056v-0.512c12.288-31.232 4.096-66.048-20.992-93.696-2.048-2.048-5.12-3.584-8.192-3.584h-1.536c-3.584 0.512-6.656 3.072-8.192 6.144 0 0.512-6.656 13.312-20.48 13.312h-3.584c-5.632-0.512-12.288-1.024-19.968-1.024-29.184 0-51.712 8.192-67.072 24.064-8.704-18.944-27.136-38.4-59.392-42.496-5.632-0.512-11.264-1.024-16.896-1.024-14.848 0-28.16 2.56-39.424 5.12-9.216 2.048-17.408 3.584-26.112 3.584h-1.024c-8.704 0-10.752-4.096-10.752-4.096-1.536-5.632-5.632-8.192-10.24-8.192z" fill="#B45334" p-id="35689"></path><path d="M479.232 136.704c-6.656 5.12-27.136 17.92-59.904 18.944-47.616 0.512-75.264-25.6-86.528-53.76 12.8 16.896 56.32 58.88 146.432 34.816zM632.832 112.128c-8.192 19.968-24.576 34.816-42.496 38.4-39.424 7.168-80.896-11.776-80.896-11.776 16.384 25.088 8.192 54.784 8.192 54.784-20.992 20.992-33.28 0-33.28 0 0.512-0.512 1.024-1.536 1.024-2.048 3.584 5.12 10.752 10.752 22.016 1.536 16.384-13.824-3.072-58.368-4.096-60.416 2.048 1.024 55.808 24.064 94.72 6.656 15.872-7.68 27.136-17.408 34.816-27.136z" fill="#59B24B" p-id="35690"></path></svg>